<mxfile host="app.diagrams.net" modified="2022-11-10T02:35:58.777Z" agent="5.0 (Windows NT 10.0; Win64; x64) AppleWebKit/537.36 (KHTML, like Gecko) Chrome/107.0.0.0 Safari/537.36" etag="dLOn6v8TUhWdPGOr3Spx" version="20.5.3" type="github">
  <diagram id="KrlU0_gX2GfaSUy0uOD7" name="第 1 页">
    <mxGraphModel dx="1422" dy="772" grid="1" gridSize="10" guides="1" tooltips="1" connect="1" arrows="1" fold="1" page="1" pageScale="1" pageWidth="827" pageHeight="1169" math="0" shadow="0">
      <root>
        <mxCell id="0" />
        <mxCell id="1" parent="0" />
        <mxCell id="i8fGst8KC8AeTyo0bqJP-1" value="" style="rounded=1;whiteSpace=wrap;html=1;arcSize=4;" vertex="1" parent="1">
          <mxGeometry x="380" y="280" width="190" height="240" as="geometry" />
        </mxCell>
        <mxCell id="i8fGst8KC8AeTyo0bqJP-7" value="" style="rounded=1;whiteSpace=wrap;html=1;arcSize=2;" vertex="1" parent="1">
          <mxGeometry x="710" y="280" width="650" height="680" as="geometry" />
        </mxCell>
      </root>
    </mxGraphModel>
  </diagram>
</mxfile>
